<svg version="1.1" xmlns="http://www.w3.org/2000/svg" xmlns:xlink="http://www.w3.org/1999/xlink" width="450" height="300" viewBox="0,0,450,300"><defs><clipPath id="clip-1"><path d="M363.03093,63.04047v233.91872h-235.66378v-120.03125c0.03382,0.02765 0.06771,0.05551 0.10156,0.08301c0.31554,0.2579 0.64839,0.4925 0.98438,0.72266c0.30514,0.20553 0.61743,0.39897 0.93066,0.5918c0.33529,0.20236 0.67208,0.40321 1.00977,0.60156c0.30105,0.17544 0.59559,0.36154 0.89941,0.53222c0.26171,0.14702 0.31227,0.17021 0.58398,0.31055c0.05749,0.02909 0.11522,0.05812 0.17285,0.08691c0.337,0.26573 0.68462,0.51757 1.03125,0.77051c0.7948,0.57505 1.59854,1.13785 2.38769,1.7207c0.47591,0.35667 0.94082,0.72993 1.37696,1.13477c0.06447,0.05984 0.12705,0.12162 0.19043,0.18262c0.23049,0.23132 0.45436,0.47374 0.62598,0.75293c0.01325,0.02875 0.03035,0.05887 0.03615,0.09082c0.0035,0.01875 -0.0087,0.0749 -0.0137,0.09375c-0.03275,0.14625 -0.09491,0.28402 -0.15429,0.4209c-0.08844,0.20195 -0.19419,0.39513 -0.30078,0.58789c-0.13941,0.23764 -0.26704,0.48248 -0.38281,0.73242c-0.1034,0.21873 -0.1814,0.44744 -0.25097,0.67871c-0.05253,0.17005 -0.08907,0.34381 -0.13868,0.51465c-0.03785,0.13781 -0.08654,0.27256 -0.13672,0.40625c-0.05533,0.14023 -0.11292,0.27922 -0.17187,0.41797c-0.0463,0.10364 -0.08223,0.2116 -0.12793,0.31543c-0.01315,0.02955 -0.02705,0.05826 -0.042,0.08691c-0.37305,0.71418 0.06911,1.17913 0.5254,0.98438c0.003,0.0033 0.0058,0.00625 0.0088,0.00975c0.00235,0.0025 0.00485,0.0053 0.00685,0.0078c-0.01435,0.0145 -0.0317,0.03265 -0.04395,0.03615c-0.0005,-0.00002 -0.0028,-0.00003 -0.003,0h-0.001l-0.001,-0.001h-0.001h-0.001l-0.001,-0.001l-0.001,-0.001h-0.001v-0.001h-0.001v-0.001h-0.001v-0.001c-0.00285,-0.00435 -0.00585,-0.01195 -0.00685,-0.02245c-0.001,0.0065 -0.0015,0.013 -0.002,0.01955c-0.0014,0.00575 -0.0005,0.01185 -0.001,0.0176c-0.0045,0.10008 0.09316,0.10075 0.09765,0.004c0,-0.0033 0.00071,-0.00625 0.001,-0.00975c0.0005,0.0005 0.00263,0.0025 0.003,0.003l0.001,0.001l0.001,0.001v0.001c0.02445,0.02739 0.05283,0.05114 0.08203,0.07324c0.0043,0.0035 0.0106,0.00625 0.0156,0.00975c0.15733,0.11241 0.27114,-0.04754 0.11328,-0.15918c-0.0035,-0.00235 -0.00725,-0.00435 -0.01075,-0.00685c-0.01886,-0.0141 -0.03766,-0.0286 -0.05371,-0.0459c-0.0108,-0.01205 -0.0207,-0.02465 -0.03125,-0.0371c0.10453,-0.08513 0.20399,-0.20907 0.28906,-0.37695c0.02559,-0.0505 0.05079,-0.10133 0.07324,-0.15332c0.0453,-0.10616 0.08443,-0.21515 0.12988,-0.32129c0.06512,-0.15328 0.1287,-0.30685 0.18945,-0.46191c0.06029,-0.16082 0.11811,-0.32268 0.16406,-0.48828c0.04775,-0.16698 0.0862,-0.33645 0.13575,-0.50293c0.05451,-0.18182 0.11439,-0.36245 0.19628,-0.53418c0.10367,-0.22604 0.22132,-0.44443 0.34668,-0.65918c0.1236,-0.22378 0.24444,-0.44905 0.34668,-0.6836c0.05924,-0.1369 0.11822,-0.27487 0.16407,-0.41699c0.31933,-0.08061 0.50922,-0.50308 0.18457,-1.04004c-0.09429,-0.15596 -0.20276,-0.30248 -0.30664,-0.45215c-0.12228,-0.17276 -0.24354,-0.3462 -0.37305,-0.51367c-0.12463,-0.17198 -0.24285,-0.34841 -0.37402,-0.51562c-0.21355,-0.26664 -0.43962,-0.52341 -0.68066,-0.76562c-0.12167,-0.1205 -0.19465,-0.19484 -0.32227,-0.3125c-0.28759,-0.26513 -0.59076,-0.51299 -0.90625,-0.74414c-0.09254,-0.06398 -0.18424,-0.12971 -0.27832,-0.1914c-0.08552,-0.05607 -0.1731,-0.1094 -0.26075,-0.16211c-0.35515,-0.21357 -0.71932,-0.41237 -1.08594,-0.60547c-0.13101,-0.11212 -0.26102,-0.2251 -0.39062,-0.33886c-0.38311,-0.33899 -0.77322,-0.67456 -1.10742,-1.06348c-0.26732,-0.31107 -0.55781,-0.4369 -0.7832,-0.4248c-0.24524,0.01315 -0.41305,0.1895 -0.38965,0.46484c-0.22771,-0.1338 -0.45214,-0.2734 -0.68066,-0.40625c-0.33111,-0.19449 -0.66143,-0.39148 -0.99024,-0.58985c-0.29796,-0.18342 -0.59527,-0.36728 -0.88574,-0.5625c-0.31128,-0.21313 -0.61985,-0.43098 -0.91211,-0.66992c-0.14209,-0.11533 -0.28363,-0.23084 -0.42285,-0.34961c-0.05002,-0.0427 -0.09794,-0.08876 -0.14844,-0.13086v0.001v0.001l-0.001,0.001v0.001c-0.05406,0.17062 -0.13364,0.28373 -0.22558,0.35645v-112.99218zM225.89546,73.58637c-1.63062,-0.03809 -2.26761,1.79212 -0.22558,3.08496c0.81153,0.51379 1.62835,1.0189 2.43652,1.53809c1.18443,0.75719 2.33024,1.57007 3.42383,2.45313c0.68723,0.5765 1.34287,1.18945 2.00976,1.78906c0.43987,0.40607 0.90671,0.77903 1.39062,1.13085c0.24453,0.13609 0.41758,0.32997 0.58105,0.55079c0.10732,0.16408 0.21535,0.32853 0.31055,0.5c0.36169,0.65142 0.79651,1.05396 1.22656,1.25293c-0.08223,0.22049 -0.15111,0.44615 -0.21777,0.67188c-0.09495,0.33441 -0.17459,0.67289 -0.25195,1.01172c-0.05248,0.22275 -0.09918,0.44684 -0.14063,0.67188c-0.04433,0.10491 -0.08786,0.20994 -0.13086,0.31543c-0.04418,0.10028 -0.08924,0.19985 -0.13184,0.30079c-0.02137,0.04995 -0.04217,0.10044 -0.06347,0.15039c-0.04166,0.09755 -0.05721,0.18459 -0.05371,0.25878c-0.00555,0.01565 -0.0116,0.03145 -0.0176,0.0469c-0.15689,0.40556 0.11647,0.62363 0.34766,0.47363c0.19678,0.22458 0.63797,0.13366 0.71777,-0.38574c0.01145,-0.0745 0.01955,-0.14907 0.01855,-0.22461c0.003,-0.11766 0.0071,-0.23527 0.0176,-0.35254c0.01435,-0.14755 0.03775,-0.29365 0.06445,-0.43946c0.03941,-0.21482 0.08375,-0.42901 0.13379,-0.6416c0.03091,-0.13539 0.06208,-0.27036 0.09473,-0.40528c0.00415,-0.0113 0.0087,-0.0229 0.0127,-0.0342c0.03513,-0.09471 0.06989,-0.18926 0.10449,-0.28418c0.13165,-0.33459 0.26254,-0.6696 0.39258,-1.00488c0.74274,-0.14168 1.25488,-0.93133 0.96582,-2.04297c0.02278,-0.03497 0.04584,-0.06999 0.06934,-0.10449c0.0139,-0.0204 0.02825,-0.04 0.042,-0.06055c0.0019,-0.00275 0.0053,-0.00675 0.0078,-0.00975l0.001,-0.001v-0.001v-0.001h0.001v-0.001h-0.001v-0.001v-0.001v-0.001h-0.001h-0.001h-0.001l-0.001,0.001l-0.001,0.001l-0.001,0.001c-0.0015,0.00185 -0.003,0.00435 -0.004,0.00585l-0.001,0.001h-0.001c-0.05403,0.0407 -0.09867,0.0653 -0.13477,0.07715c-0.01285,-0.04339 -0.0267,-0.08656 -0.042,-0.13086c0.01818,-0.04383 0.03658,-0.08803 0.05468,-0.13183c0.13728,-0.33213 0.00729,-0.562 -0.17285,-0.5625c-0.04478,-0.0001 -0.0922,0.0139 -0.13965,0.04395c-0.01931,-0.00925 -0.03826,-0.0181 -0.05761,-0.02735c-0.16737,-0.28829 -0.34313,-0.57345 -0.54004,-0.84278c-0.35049,-0.44736 -0.7359,-0.86933 -1.22265,-1.17285c-0.39641,-0.28623 -0.77682,-0.59337 -1.13574,-0.92578c-0.70863,-0.63714 -1.40472,-1.289 -2.1377,-1.89844c-0.16796,-0.13517 -0.33679,-0.269 -0.50684,-0.40136c0.28961,0.02355 0.5794,0.04284 0.86914,0.06055c0.80912,0.04971 1.61935,0.06056 2.42969,0.05371c0.46132,0.0049 0.9173,-0.05793 1.37109,-0.13281c1.07316,-0.17709 1.70507,-0.67483 1.94043,-1.22364c1.37212,-0.50218 1.0796,-2.18364 -0.87695,-2.18359c-0.34061,0.00001 -0.68186,-0.00003 -1.02246,0c-0.45011,0 -0.89951,0.0008 -1.34961,0.001c-0.80813,0.0005 -1.61667,0.001 -2.4248,0.002c-0.89107,0.0013 -1.78271,0.0028 -2.67383,0.0078c-0.32386,-0.08137 -0.64467,-0.17333 -0.95703,-0.29199c-0.45186,-0.17166 -0.86232,-0.2475 -1.22265,-0.25c-0.55781,-0.00361 -0.99438,0.17014 -1.27735,0.44336c-0.10916,-0.06786 -0.21883,-0.13546 -0.32812,-0.20313c-0.57536,-0.35625 -1.10983,-0.51376 -1.5664,-0.52441zM278.22553,85.58204c-1.52335,-0.02103 -2.3868,0.8484 -2.37695,1.86035c-0.70104,0.49747 -0.90645,1.40812 -0.44629,2.33105c-0.58992,0.24382 -0.69173,0.61577 0.41015,1.32325c0.47514,0.30506 0.95898,0.59781 1.43262,0.90527c0.49723,0.29717 0.92133,0.68517 1.33398,1.08691c0.48992,0.50136 0.96188,1.02146 1.45214,1.52246c0.50479,0.52107 1.07349,0.966 1.67383,1.37012c0.48373,0.31223 0.99007,0.58723 1.49023,0.87207c0.34004,0.17442 0.65176,0.39186 0.95019,0.6289c0.16807,0.13072 0.32073,0.28075 0.45996,0.4414c0.11624,0.13412 0.23313,0.25755 0.35059,0.37109c-0.02268,0.09105 -0.04493,0.18226 -0.06738,0.27344c-0.0166,0.05424 -0.0268,0.08389 -0.0283,0.08984c0.00135,-0.00255 0.0063,-0.01235 0.01365,-0.0293c0.00505,-0.02035 0.00965,-0.04014 0.01465,-0.06054c0.0039,-0.0129 0.00915,-0.0262 0.01365,-0.042c0.02286,-0.07694 0.04551,-0.14934 0.06836,-0.2168c0.61527,0.59015 1.24122,0.90397 1.81054,1.00196c0.03589,0.08024 0.07127,0.16122 0.10742,0.24121c-0.0317,0.07818 -0.06431,0.15583 -0.09766,0.23339c-0.09515,0.21654 -0.20189,0.42847 -0.32422,0.63086c-0.11366,0.1591 -0.21848,0.32143 -0.30859,0.49512c-0.13044,0.26334 -0.19679,0.55196 -0.25684,0.83789c-0.03245,0.13191 -0.03855,0.2664 -0.04395,0.40136c-0.03375,0.83768 0.48511,0.38806 0.9541,-0.0244c-0.002,0.00415 -0.003,0.0087 -0.005,0.0127c-0.02415,0.05644 -0.0441,0.11502 -0.0625,0.17382c-0.01125,0.02634 -0.0217,0.05245 -0.0322,0.0791c-0.01805,0.02084 -0.03195,0.04569 -0.0459,0.06934c-0.02576,0.04551 -0.04681,0.0932 -0.06641,0.1416c-0.01275,0.03175 -0.02555,0.06346 -0.0371,0.09571c-0.00645,0.02085 -0.00885,0.025 -0.0156,0.0459c-0.01245,0.03905 -0.022,0.07904 -0.03025,0.11914c-0.0045,0.02329 -0.00965,0.04594 -0.01365,0.06934c-0.00205,0.0157 -0.0048,0.0322 -0.0078,0.04785c-0.0053,0.01275 -0.01045,0.02625 -0.0156,0.03905c-0.0111,0.02695 -0.02205,0.0534 -0.03125,0.08105l-0.003,0.0088c-0.0086,0.02959 -0.0066,0.05258 0.003,0.06739c-0.00235,0.0056 -0.00435,0.01285 -0.00585,0.01855c-0.001,0.004 -0.003,0.00725 -0.005,0.01075c-0.03675,0.08922 0.0531,0.12649 0.08985,0.0371c0.00235,-0.00595 0.00485,-0.01235 0.00685,-0.01855c0.0025,-0.0076 0.0058,-0.01405 0.0088,-0.0215c0.004,-0.01105 0.00725,-0.02205 0.01075,-0.0332c0.00605,-0.01897 0.0121,-0.03807 0.0156,-0.05762c0.0035,-0.01675 0.00625,-0.03305 0.00975,-0.0498c0.0035,-0.01799 0.00775,-0.03654 0.01075,-0.05469c0.0119,-0.02882 0.0241,-0.05709 0.03615,-0.08594c0.0136,-0.0329 0.0276,-0.06621 0.04005,-0.09961c0.0027,-0.00725 0.0053,-0.0153 0.0078,-0.02245c0.01015,-0.0088 0.01945,-0.0218 0.02635,-0.04005c0.0144,-0.03784 0.0064,-0.01764 0.0215,-0.05859c0.0305,-0.08586 0.05929,-0.17263 0.08594,-0.25977c0.00925,-0.03044 0.0189,-0.06042 0.0283,-0.09082v-0.004v-0.00585h0.001v-0.00585l0.001,-0.001v-0.001v-0.00585c0.00285,-0.0071 0.00485,-0.01405 0.00585,-0.0205c0.01574,-0.04967 0.03224,-0.09941 0.05274,-0.14746c0.0078,-0.01849 0.0161,-0.03824 0.0244,-0.05664c0.003,-0.0065 0.0058,-0.01315 0.0088,-0.01955c0.00185,-0.0045 0.00485,-0.0082 0.00685,-0.0127c0.0005,-0.001 0.00156,-0.003 0.002,-0.004h-0.001c-0.0089,0.00725 -0.0177,0.01025 -0.02345,0.01075c-0.0005,0.00002 -0.00257,0.00002 -0.003,0h-0.001l-0.001,-0.001h-0.001l-0.001,-0.001h-0.001h-0.001v-0.001v-0.001l-0.001,-0.001h-0.001l-0.001,-0.001v-0.001v-0.001c-0.004,-0.0082 -0.00457,-0.0214 -0.005,-0.03515c0.37776,-0.33029 0.69658,-0.58302 0.62402,-0.02635c-0.0041,0.01922 -0.0077,0.03836 -0.0117,0.05761l0.001,0.001h0.001v0.001l0.001,0.001c-0.0029,0.01786 -0.00625,0.03637 -0.00975,0.05566c-0.0093,0.017 -0.0173,0.03345 -0.0088,0.0459l0.001,0.001v0.001h0.001h0.001v-0.001l0.001,-0.001c0.0025,-0.00805 0.0005,-0.02405 0.002,-0.0303c0.001,-0.0052 0.002,-0.0105 0.003,-0.0156c0.00875,-0.016 0.0186,-0.0334 0.0166,-0.0459v-0.001v-0.001l-0.001,-0.001v-0.001l-0.001,-0.001l-0.001,-0.001v-0.001c-0.0005,-0.0005 -0.00181,-0.00178 -0.002,-0.002l-0.001,-0.001h-0.001c0.0034,-0.021 0.0063,-0.0415 0.0088,-0.06055c0.0148,-0.06922 0.0309,-0.1375 0.04885,-0.20606c0.00975,-0.0372 0.015,-0.07626 0.0283,-0.1123c0.0076,-0.02062 0.0182,-0.03962 0.02735,-0.05957c0.06013,-0.14178 0.17977,-0.25123 0.25,-0.3877c0.01165,-0.0195 0.02275,-0.03899 0.0342,-0.05859c0.3325,0.21616 0.67989,0.02778 1.0459,-0.91601c0.17314,-0.44642 0.10724,-0.24313 0.21094,-0.60547c0.07355,-0.30256 0.14759,-0.60448 0.23926,-0.90234c0.08031,-0.34602 0.11958,-0.457 0.14258,-0.83399c0.0234,-0.38397 -0.03496,-0.76576 -0.09961,-1.14257c-0.14575,-0.65747 -0.3755,-1.28892 -0.76563,-1.84472c-0.50811,-0.71767 -1.09356,-1.37323 -1.76172,-1.94727c-0.42324,-0.36037 -0.85823,-0.70491 -1.30274,-1.03711c0.337,-0.03288 0.67078,-0.09494 1.00196,-0.17676c0.16877,-0.0473 0.34027,-0.0821 0.51367,-0.10645c1.29687,-0.18209 2.14578,-0.70636 2.58301,-1.33398c0.02677,-0.00575 0.05363,-0.01235 0.08008,-0.01955c1.21092,-0.32951 0.49825,-2.03501 -0.05567,-2.06836c-0.516,-0.72358 -1.62797,-1.20117 -3.26367,-0.94922c-0.31179,0.048 -0.6221,0.1066 -0.92676,0.18945c-0.14749,0.03737 -0.2861,0.08332 -0.44239,0.07422c-0.41775,-0.02702 -0.8308,-0.12314 -1.23339,-0.2334c-0.74496,-0.23714 -1.48204,-0.49476 -2.20508,-0.79297c-0.66803,-0.2587 -1.33733,-0.51901 -2.02246,-0.72949c-0.52276,-0.1606 -0.99809,-0.23634 -1.42286,-0.24219zM189.32388,88.77862c-0.03761,-0.001 -0.07674,0 -0.11719,0.002c-0.0156,0.001 -0.03115,0.001 -0.04685,0.002c-0.15879,0.003 -0.3181,0.00865 -0.47657,0.01955c-0.18943,0.01355 -0.37775,0.0331 -0.56543,0.0625c-0.24438,0.0353 -0.48896,0.07305 -0.73535,0.0918c-0.09936,0.0088 -0.19927,0.01675 -0.29883,0.02345h-2.19043h-1.5c-0.22834,0.004 -0.45638,-0.0058 -0.68457,0.003c-0.15917,-0.0056 -0.31852,-0.01305 -0.47754,-0.02345c-0.25396,-0.0209 -0.51246,-0.03349 -0.75878,-0.10352c-0.77985,-0.2216 -1.20879,0.21794 -0.96485,0.625c-0.16665,0.26362 0.05246,0.61855 0.59961,0.55664c0.12104,-0.0137 0.24207,-0.03 0.3623,-0.0498c0.22119,0.0389 0.44741,0.0545 0.66992,0.07325c0.51451,0.03475 1.03042,0.03945 1.5459,0.04295c0.49891,0.002 0.99817,0.001 1.49707,0.001c0.45152,-0.00015 0.90297,0.00011 1.35449,0c0.31489,-0.0003 0.62882,-0.0206 0.94239,-0.04785c0.26692,-0.0205 0.53209,-0.06038 0.79687,-0.09863c0.16127,-0.02554 0.32351,-0.04324 0.48633,-0.05469c0.13985,-0.0095 0.2798,-0.0126 0.41992,-0.0156c0.02575,-0.001 0.0514,-0.003 0.07715,-0.004c0.16017,-0.00719 0.29596,-0.03721 0.40723,-0.08301h0.46582c0.8132,0 0.8132,-0.82128 0,-0.82128h-0.23144c-0.1211,-0.114 -0.31393,-0.19423 -0.57715,-0.20118zM188.36334,95.83429c-0.39165,0.00002 -0.77541,0.38696 -0.75781,1.16016c0.0025,0.11469 -0.00705,0.22888 -0.01955,0.34277c-0.03615,0.22381 -0.07483,0.44686 -0.125,0.66797c-0.0653,0.25838 -0.13253,0.51639 -0.19531,0.77539c-0.04905,0.19167 -0.08884,0.38549 -0.13379,0.57813c-0.05905,0.22821 -0.13839,0.45047 -0.2041,0.67676c-0.0497,0.19911 -0.10243,0.39664 -0.16601,0.5918c-0.03285,0.11965 -0.07851,0.23399 -0.13184,0.3457c-0.0462,0.10772 -0.09491,0.21379 -0.1416,0.32129c-0.28543,0.65698 -0.13026,1.14327 0.17969,1.33496c-0.00925,0.03922 -0.01825,0.07839 -0.0293,0.11719c-0.0101,0.035 -0.0217,0.06931 -0.0342,0.10351c-0.00775,0.01962 -0.0151,0.03977 -0.02245,0.05957c-0.00595,0.01683 -0.012,0.03378 -0.01755,0.05078c-0.006,0.01706 -0.0114,0.03481 -0.0176,0.05176c-0.0063,0.01736 -0.01305,0.03446 -0.01955,0.05176c-0.00655,0.01515 -0.01135,0.03115 -0.0166,0.04685c-0.0045,0.01285 -0.01015,0.0254 -0.01465,0.0381c-0.0035,0.0099 -0.00725,0.01935 -0.01075,0.0293c-0.0015,0.00445 -0.003,0.00915 -0.004,0.01365l-0.001,-0.001c-0.0031,-0.0036 -0.00675,-0.0099 -0.00975,-0.01855v-0.001v-0.001v-0.001h-0.001v0.001h-0.001v0.001v0.001h-0.001l-0.001,0.001v0.001l-0.001,0.001v0.001v0.001h-0.001v0.001c-0.002,0.00335 -0.001,0.00185 -0.003,0.00585c-0.03078,0.05517 -0.0042,0.09382 0.03025,0.09082c0.02393,0.01819 0.06475,0.00659 0.08105,-0.04885c0.0015,-0.0058 0.0035,-0.01075 0.005,-0.0166c0.003,-0.0091 0.00675,-0.01825 0.00975,-0.02735c0.005,-0.0136 0.01015,-0.0272 0.01465,-0.041c0.00485,-0.01455 0.0095,-0.02885 0.0156,-0.04295c0.0066,-0.01753 0.0141,-0.03513 0.0205,-0.05273c0.0066,-0.01804 0.0122,-0.03659 0.01855,-0.05469c0.0052,-0.01585 0.01005,-0.0311 0.0156,-0.04685c0.00735,-0.01992 0.0147,-0.03982 0.02245,-0.05957c0.0133,-0.03645 0.02635,-0.07305 0.0371,-0.11035c0.00935,-0.03282 0.01745,-0.06548 0.0254,-0.09863c0.35854,0.1454 0.86282,-0.0582 1.16406,-0.76074c0.03985,-0.09288 0.0841,-0.18408 0.12305,-0.27735c0.07979,-0.17137 0.15072,-0.34642 0.20313,-0.52832c0.06818,-0.21144 0.12856,-0.42462 0.18066,-0.64062c0.0721,-0.25265 0.16568,-0.49965 0.22559,-0.75586c0.04365,-0.18821 0.08218,-0.3772 0.12988,-0.56445c0.06451,-0.26738 0.135,-0.53283 0.20118,-0.79981c0.06241,-0.28007 0.11384,-0.56258 0.15429,-0.84668c0.01735,-0.16846 0.0313,-0.33734 0.0283,-0.50684c-0.0133,-0.77329 -0.41298,-1.16017 -0.80469,-1.16015zM286.93816,102.06588h0.001v-0.001h-0.001zM140.02896,121.78746c-3.46446,0.06169 -4.2913,4.24227 0.24804,6.40234c0.76064,0.36196 1.55023,0.655 2.34766,0.92383c0.38673,0.13098 0.77817,0.24613 1.17285,0.34571c0.31427,0.24543 0.6248,0.49473 0.93847,0.74121c0.39857,0.31428 0.81916,0.59878 1.24707,0.8711c0.48081,0.30393 0.971,0.59292 1.45801,0.88672c0.46135,0.28267 0.93187,0.55005 1.40332,0.81543c0.40139,0.21433 0.789,0.45139 1.17285,0.69531c0.32114,0.19488 0.61866,0.42259 0.91113,0.65723c0.01741,0.01458 0.05966,0.04961 0.10156,0.08497v0.001c-0.00875,0.02427 -0.0173,0.04811 -0.02635,0.07227c-0.04327,0.11517 -0.04051,0.10636 -0.09082,0.22461c-0.11682,0.27382 -0.26336,0.53307 -0.41113,0.79101c-0.19487,0.33647 -0.37799,0.67892 -0.53613,1.03418c-0.08599,0.21176 -0.04548,0.10705 -0.12109,0.31347c-0.28304,0.7729 0.00349,1.28683 0.4121,1.37891c-0.04058,0.10767 -0.08312,0.21448 -0.12597,0.32128c-0.03915,0.09921 -0.07898,0.19827 -0.11719,0.29785c-0.0307,0.08579 -0.05997,0.17176 -0.08691,0.25879c-0.02587,0.08587 -0.04837,0.17283 -0.07032,0.25977c-0.0176,0.06754 -0.03075,0.13669 -0.0449,0.20507c-0.02602,-0.01365 -0.05245,-0.0266 -0.0791,-0.03905c-0.0096,-0.0049 -0.0196,-0.0106 -0.0293,-0.0156v0.001c0.0102,0.00925 0.00345,0.0024 0.0117,0.01075c0.2733,0.27336 -0.55031,0.00465 -0.27539,0.27636c0.03306,0.03249 0.07439,0.05429 0.11524,0.0752c0.03305,0.0161 0.06683,0.03135 0.09863,0.0498c0.02449,0.0138 0.04764,0.029 0.06934,0.04685c0.02732,0.02465 0.05601,0.0464 0.08691,0.06641c0.0167,0.01035 0.0076,0.0052 0.02735,0.0166c0.28871,0.16825 0.47708,-0.07016 0.30371,-0.25684c0.0211,-0.03559 0.03865,-0.07942 0.0498,-0.13281c0.0145,-0.06934 0.02625,-0.13938 0.04395,-0.20801c0.02023,-0.08026 0.04168,-0.16092 0.06543,-0.24024c0.02435,-0.07883 0.05156,-0.15659 0.07911,-0.23437c0.03748,-0.09776 0.07585,-0.19458 0.11425,-0.29199c0.0452,-0.11272 0.09012,-0.22615 0.13282,-0.33984c0.0223,-0.06047 0.04365,-0.1216 0.06445,-0.18261c0.23993,-0.11332 0.47198,-0.36761 0.62305,-0.79004c0.0496,-0.13868 0.02247,-0.06703 0.08105,-0.21386c0.1348,-0.3069 0.29729,-0.59996 0.46387,-0.89062c0.17886,-0.31288 0.35353,-0.62856 0.49414,-0.96094c0.12094,-0.2894 0.25208,-0.60411 0.26563,-0.92187c0.004,-0.0913 -0.0058,-0.1821 -0.0088,-0.27344c-0.02379,-0.09053 -0.03794,-0.18402 -0.07129,-0.27148c-0.12039,-0.31559 -0.37737,-0.53542 -0.63183,-0.74122c-0.33722,-0.27041 -0.68156,-0.53087 -1.05078,-0.75683c-0.40733,-0.25873 -0.81856,-0.51037 -1.24414,-0.73828c-0.45778,-0.25766 -0.91536,-0.5174 -1.36328,-0.79199c-0.39926,-0.24086 -0.80005,-0.47819 -1.19629,-0.72364c0.36471,-0.00527 0.72939,-0.03034 1.09375,-0.07324c0.35226,-0.04035 0.70003,-0.11268 1.04785,-0.17969c2.49235,-0.48017 3.76309,-1.79611 3.97558,-3.10058c0.29263,-0.15801 0.29104,-0.47873 0.0215,-0.62207c-0.15618,-1.63394 -1.99678,-3.02788 -5.18066,-2.41406c-0.2091,0.0403 -0.41645,0.08733 -0.62793,0.11329c-0.29973,0.04115 -0.59737,0.03915 -0.90039,0.001c-0.64178,-0.06196 -1.2645,-0.24584 -1.87793,-0.43652c-0.60933,-0.19996 -1.209,-0.43051 -1.78809,-0.70703c-1.04687,-0.49987 -1.98664,-0.70468 -2.78613,-0.69043zM315.35513,122.88718c-2.60598,-0.00285 -3.33533,3.01349 0.003,4.69433c0.29415,0.1481 0.53314,0.37992 0.77246,0.60157c0.58996,0.56182 1.10721,1.19044 1.64258,1.80273c0.61659,0.75626 1.26023,1.48704 1.96875,2.15821c0.59649,0.56741 1.24492,1.07206 1.92285,1.53711c-0.1427,0.25986 -0.27892,0.52283 -0.41308,0.78711c-0.14187,0.30083 -0.07363,0.14854 -0.20606,0.45703c-1.17702,2.74208 0.25768,4.48431 1.87598,4.2041c0.00616,0.16834 0.07226,0.28938 0.16504,0.35449c-0.00285,0.02364 -0.00435,0.04749 -0.00585,0.07129c-0.0015,0.02323 -0.0025,0.04603 -0.003,0.06933c-0.0005,0.00925 -0.0005,0.01915 -0.002,0.0283c-0.0005,0.0025 -0.0015,0.0053 -0.002,0.0078c-0.0025,0.01165 -0.00675,0.02205 -0.01075,0.0332c-0.004,0.0103 -0.00625,0.0205 -0.01075,0.0303c-0.0025,0.005 -0.0058,0.0106 -0.0088,0.0156c-0.07532,0.11411 0.04555,0.18872 0.11719,0.07227c0.0063,-0.0102 0.0126,-0.02035 0.0176,-0.03125c0.0055,-0.01245 0.01015,-0.0253 0.01465,-0.0381c0.0063,-0.01691 0.0116,-0.03416 0.0156,-0.05176c0.00435,-0.02105 0.00705,-0.0409 0.00685,-0.0625c0.0005,-0.02122 0.002,-0.04232 0.003,-0.06347c0.001,-0.00945 0.0015,-0.0188 0.002,-0.0283c0.18255,0.02432 0.39781,-0.11828 0.48926,-0.46875c0.02357,-0.09031 0.04337,-0.1807 0.05957,-0.27246c0.59179,-0.37304 1.15092,-1.04408 1.55762,-2.06348c0.04289,-0.10751 0.01926,-0.05077 0.07324,-0.16992c0.12982,-0.2602 0.26698,-0.51737 0.40821,-0.77148c0.28699,-0.48846 0.58551,-0.97368 0.72754,-1.5293c0.03265,-0.17885 0.07853,-0.35641 0.09863,-0.53711c0.09194,-0.82628 -0.15744,-1.63956 -0.5957,-2.33301c-0.10734,-0.13965 -0.20715,-0.28563 -0.32227,-0.41895c-0.38991,-0.45158 -0.8933,-0.78725 -1.39355,-1.10254c-0.49836,-0.33288 -0.96806,-0.70346 -1.40332,-1.11621c-0.60502,-0.55698 -1.11835,-1.19943 -1.64844,-1.82617c-0.09359,-0.10703 -0.18704,-0.21485 -0.28028,-0.32227c0.07677,0.00585 0.15373,0.01235 0.23047,0.01855c1.13602,0.08393 2.2714,0.17305 3.40723,0.25977c0.51119,0.0393 1.02204,0.09465 1.53516,0.09765c1.62637,0.00925 1.62629,-1.62555 0,-1.64355c-0.47094,-0.0052 -0.93991,-0.05569 -1.40918,-0.09179c-1.13745,-0.08685 -2.27446,-0.17668 -3.41211,-0.26074c-0.65488,-0.05279 -1.31061,-0.09398 -1.96679,-0.12793c-0.03878,-0.03695 -0.07789,-0.0739 -0.11719,-0.11035c-0.5589,-0.50403 -1.13983,-0.99105 -1.82227,-1.32129c-0.7764,-0.37571 -1.4787,-0.53759 -2.08105,-0.53809zM322.20382,134.02187c0.0683,0.04606 0.12517,0.0937 0.15332,0.14356v0.001v0.001v0.001h-0.001h-0.001h-0.001c-0.00665,-0.0022 -0.0208,-0.0116 -0.02635,-0.0166c-0.0344,-0.03025 -0.06531,-0.06521 -0.09766,-0.09766c-0.00905,-0.01085 -0.01795,-0.0214 -0.02635,-0.03225zM151.10813,134.27776c0.00835,0.0073 0.0154,0.01355 0.0205,0.01855c0.01445,0.01345 0.02965,0.0272 0.04005,0.04395v0.001h-0.001h-0.001c-0.0043,-0.00135 -0.0141,-0.00725 -0.0176,-0.01075c-0.0209,-0.02104 -0.0318,-0.03638 -0.041,-0.05274zM331.0163,174.91058c-1.54727,-0.0357 -1.58251,1.52583 -0.03615,1.56153c0.11797,0.0025 0.23555,0.0053 0.35352,0.0078c1.08609,0.0273 2.17159,0.06273 3.25683,0.11426c0.23217,0.0107 1.1408,0.05213 1.36621,0.06153c0.74463,0.03095 1.49084,0.04423 2.23438,0.09765c0.33837,0.02875 0.67573,0.07007 1.01464,0.09082c1.5439,0.09452 1.73649,-1.44441 0.19336,-1.55078c-0.35912,-0.02475 -0.7165,-0.06588 -1.07519,-0.09668c-0.76791,-0.05659 -1.53851,-0.07054 -2.30762,-0.10254c-0.21324,-0.00885 -1.13644,-0.05153 -1.35352,-0.06153c-1.09612,-0.05203 -2.19306,-0.08666 -3.29004,-0.11426c-0.11904,-0.0025 -0.23741,-0.0053 -0.35645,-0.0078zM130.79754,175.3998c-1.09365,-0.01495 -1.09353,1.08264 0,1.10449c0.30129,0.00599 0.60278,0.03399 0.90332,0.05469c0.70918,0.05333 1.42001,0.06638 2.13085,0.06738c0.50372,0.00205 1.00715,-0.0094 1.51075,-0.01755c0.47189,-0.0074 0.9431,-0.0102 1.41504,-0.0127c0.32879,-0.0015 0.65752,-0.0025 0.98632,-0.003c0.31105,-0.0015 0.62255,-0.00092 0.93359,-0.001c0.10106,-0.00002 0.20169,0.00002 0.30274,0c1.09375,-0.00017 1.09375,-1.10467 0,-1.10449c-0.10109,0.00001 -0.20165,-0.00002 -0.30274,0c-0.31146,0 -0.6231,0.00066 -0.93457,0.001c-0.33016,0.0005 -0.66008,0.0015 -0.99024,0.003c-0.47605,0.0025 -0.9527,0.00525 -1.42871,0.0127c-0.497,0.0081 -0.9941,0.0196 -1.49121,0.0176c-0.6861,-0.001 -1.37216,-0.01378 -2.05664,-0.06543c-0.32583,-0.02244 -0.65178,-0.05214 -0.97851,-0.05664zM328.47919,176.25824c-0.87646,-0.02844 -1.15976,1.0067 -0.04495,1.58691c0.27298,0.14208 0.52523,0.32117 0.77344,0.50195c0.35777,0.26058 0.5573,0.41772 0.91797,0.69434c0.78715,0.60506 1.55949,1.22941 2.34472,1.83691c0.44005,0.34045 0.62864,0.48055 1.06445,0.80859c0.79491,0.5792 1.53294,1.22923 2.27246,1.87598c0.40797,0.35184 0.81092,0.70991 1.23535,1.042c0.03314,0.02348 0.06684,0.04643 0.10059,0.06933c-0.09157,0.47147 -0.18619,0.94269 -0.27832,1.41406c-0.0486,0.22882 -0.09026,0.4615 -0.1748,0.68066c-0.0239,0.06191 -0.06562,0.15064 -0.09277,0.20996c-0.08724,0.19535 -0.18573,0.38468 -0.30176,0.56446c-0.01215,0.01758 -0.0249,0.03509 -0.0371,0.05273c-1.24294,1.80007 0.60615,3.05655 1.82813,1.24219c0.0243,-0.0361 0.0489,-0.07229 0.07325,-0.10839c0.17085,-0.27079 0.32371,-0.55262 0.45312,-0.84571c0.07193,-0.16172 0.11021,-0.2408 0.17188,-0.41211c0.11216,-0.31169 0.18427,-0.63571 0.24902,-0.95996c0.11729,-0.60016 0.23825,-1.20004 0.35254,-1.80078c0.08305,-0.43573 0.16051,-0.87173 0.22559,-1.31055c0.17047,-1.14954 -0.36235,-1.75677 -0.95117,-1.74902c-0.47867,0.00628 -0.99407,0.41871 -1.19922,1.27539c-0.20944,-0.17951 -0.4166,-0.36197 -0.62597,-0.54102c-0.76828,-0.6719 -1.53589,-1.34606 -2.36133,-1.94824c-0.42353,-0.31876 -0.61484,-0.46056 -1.04199,-0.79102c-0.78903,-0.6104 -1.56542,-1.23786 -2.35645,-1.8457c-0.61486,-0.4713 -1.22341,-0.96377 -1.90625,-1.33496c-0.25481,-0.13851 -0.48851,-0.20145 -0.69043,-0.208zM314.26331,222.21425c-0.84328,0.03589 -1.52046,0.60964 -1.68555,1.52246c-0.3276,0.32143 -0.44611,0.76909 -0.31445,1.21973c-0.35071,0.69001 0.04453,1.62959 1.47558,2.14062c0.2083,0.31283 0.4257,0.61906 0.66113,0.91211c0.15391,0.19157 0.31851,0.37515 0.47754,0.5625c0.97496,1.13154 2.15556,2.0471 3.32617,2.96289c0.58177,0.45328 1.19179,0.87378 1.73047,1.37989c0.19923,0.18719 0.3057,0.31013 0.49024,0.50976c0.31698,0.35108 0.61298,0.72136 0.89844,1.09863c0.00135,0.01395 0.00685,0.0349 0.00585,0.0459c-0.0025,0.03275 -0.0096,0.05804 -0.0166,0.08984c-0.027,0.02578 -0.0108,0.00677 -0.0322,0.06738c-0.63342,1.79192 -0.07605,3.02118 0.83203,3.48828c0.03939,0.70174 0.40224,1.18248 0.88476,1.35742c0.06998,0.13082 0.17421,0.28889 -0.0342,0.23633c0.01515,0.00485 0.0302,0.00975 0.04495,0.0156c0.02004,0.00775 0.0405,0.01565 0.06054,0.02345c0.2549,0.09891 0.4003,-0.0545 0.33594,-0.20215c0.65567,0.00789 1.40989,-0.4837 1.88086,-1.63379c0.06905,-0.1687 0.13712,-0.33719 0.19336,-0.51074c0.13214,-0.38202 0.25303,-0.76885 0.33985,-1.16406c0.09751,-0.46527 0.17345,-0.93479 0.27441,-1.39941c0.11776,-0.53667 0.25611,-1.06935 0.34179,-1.6123c0.2562,-1.62338 -0.45017,-2.47299 -1.26758,-2.45899c-0.2797,0.00479 -0.57205,0.11087 -0.84375,0.32129c-0.21586,-0.26682 -0.43865,-0.5285 -0.6709,-0.78125c-0.32778,-0.3478 -0.43316,-0.47158 -0.79199,-0.80273c-0.49415,-0.45603 -1.02804,-0.86323 -1.56348,-1.26855c0.01485,0.0005 0.0296,0.0015 0.04495,0.002c1.03416,0.0211 2.06964,-0.02868 3.0957,-0.15918c0.12215,-0.02002 0.24405,-0.03957 0.36621,-0.05957c1.92459,-0.31535 2.43038,-1.66499 1.77735,-2.48926c0.45014,-0.10173 0.53008,-0.2996 -0.22266,-0.71192c-0.46137,-0.25272 -0.89463,-0.56429 -1.38379,-0.75781c-0.12589,-0.0498 -0.26988,0.02901 -0.40332,0.05176c-0.18367,0.03135 -0.35645,0.11348 -0.53418,0.16602c-0.26801,0.0797 -0.5376,0.15434 -0.81738,0.17969c-0.04305,0.0035 -0.28607,0.0251 -0.34082,0.0254c-0.42134,0.002 -0.84277,-0.0368 -1.26368,-0.04785c-0.81567,-0.04755 -1.63071,-0.1167 -2.4375,-0.25c-0.75072,-0.12003 -1.50109,-0.24664 -2.24805,-0.38867c-0.82585,-1.22138 -1.8277,-1.71636 -2.66601,-1.68066zM141.63434,223.59889c-1.72795,0.1074 -1.34658,0.65769 -0.51757,1.34668c-0.1125,-0.02544 -0.22381,-0.05502 -0.33399,-0.08887c-0.908,-0.585 -1.74186,-0.81499 -2.42871,-0.79199c-2.07816,0.06956 -2.80652,2.46068 -0.14649,4.38184c0.45416,0.328 0.93765,0.61092 1.40625,0.91699c0.3302,0.21568 0.7878,0.5359 1.10547,0.75586c1.04919,0.73522 2.08496,1.48923 3.10546,2.26368c0.65283,0.48376 1.30729,0.96471 1.94239,1.47168c0.48294,0.3999 0.99412,0.76265 1.5127,1.11426c0.16971,0.12904 0.36287,0.23017 0.52539,0.36914c0.0005,0.0005 0.00254,0.0025 0.003,0.003v0.001l0.001,0.001l0.001,0.001c0.00355,0.007 0.00525,0.01785 0.00975,0.0244c0.06464,0.07984 0.13587,0.15391 0.20215,0.23242c0.07877,0.09193 0.11562,0.1972 0.14746,0.3086c-0.16275,-0.08109 -0.31212,-0.11573 -0.44141,-0.11523c-0.562,0.00285 -0.74718,0.67568 -0.01855,1.12207c0.14253,0.08732 0.27335,0.18981 0.40137,0.29687c0.24615,0.20816 0.49186,0.41818 0.74316,0.62012c0.16359,0.13236 0.32697,0.26396 0.49121,0.3955c0.07007,0.05535 0.14019,0.11131 0.20996,0.16699c0.00146,0.35998 0.16446,0.61361 0.39355,0.71973c0.01679,0.01475 0.03544,0.0263 0.05469,0.03515c-0.00715,0.03295 -0.0152,0.06599 -0.02345,0.09864c-0.011,-0.00775 -0.02225,-0.01565 -0.0332,-0.02345c-0.05704,-0.0411 -0.11531,-0.08069 -0.17285,-0.12109c-0.0347,-0.02366 -0.06904,-0.04721 -0.10644,-0.06641c-0.03225,-0.01655 -0.06229,-0.0239 -0.08789,-0.0244c-0.11161,-0.00236 -0.14698,0.12429 -0.00685,0.19531c0.03215,0.01629 0.06209,0.03634 0.09179,0.05664c0.05615,0.0395 0.1123,0.07801 0.16797,0.11816c0.02828,0.02022 0.05651,0.03967 0.08496,0.05957v0.001c-0.0136,0.0326 -0.02715,0.06534 -0.03905,0.09864c-0.0087,0.02125 -0.0191,0.04145 -0.0283,0.0625c-0.00895,0.01887 -0.0172,0.03847 -0.0254,0.05762c-0.004,0.00955 -0.00865,0.01815 -0.01365,0.02735c-0.08982,0.17122 0.08533,0.26175 0.17383,0.08984c0.007,-0.0136 0.0136,-0.02685 0.01955,-0.041c0.0079,-0.01867 0.01575,-0.03731 0.0244,-0.05567c0.01095,-0.02524 0.02385,-0.04929 0.0332,-0.0752c0.0056,-0.01585 0.01205,-0.0312 0.01855,-0.04685c0.01635,0.01215 0.03255,0.02395 0.04885,0.03615c0.0139,0.01055 0.0282,0.02155 0.042,0.03225c0.15294,0.11829 0.2721,-0.03604 0.11914,-0.1543c-0.01465,-0.01135 -0.0292,-0.023 -0.04395,-0.0342c-0.03221,-0.02407 -0.06423,-0.04851 -0.09668,-0.07226c0.0042,-0.0141 0.0082,-0.0278 0.0117,-0.042c0.0135,-0.0519 0.02595,-0.10468 0.0371,-0.15723c0.14397,0.0012 0.29783,-0.04551 0.44531,-0.14844c0.26757,-0.01862 0.44677,-0.22252 0.43067,-0.49024c0.30162,0.15207 0.64758,-0.05061 1.06152,-0.86816c0.15329,-0.30275 0.29929,-0.60805 0.36914,-0.94336c0.02264,-0.12573 0.05139,-0.25022 0.06739,-0.37696c0.07162,-0.56669 -0.00021,-1.13551 -0.16504,-1.67969c-0.02602,-0.07964 -0.05276,-0.15862 -0.08106,-0.2373c-0.01787,-0.29722 -0.09994,-0.58644 -0.22754,-0.85645c-0.03475,-0.06304 -0.06582,-0.12812 -0.10351,-0.18945c-0.17928,-0.29176 -0.42708,-0.53337 -0.68946,-0.75c-0.01225,-0.00935 -0.02355,-0.01815 -0.0342,-0.02635c-0.1622,-0.18454 -0.28287,-0.32326 -0.48242,-0.50879c-0.31823,-0.29588 -0.66935,-0.54553 -1.03125,-0.78418c-0.42407,-0.28706 -0.84204,-0.58237 -1.23535,-0.91114c-0.66328,-0.52848 -1.34491,-1.03372 -2.02734,-1.53711c-0.24573,-0.18644 -0.4919,-0.37147 -0.73926,-0.55567c0.02747,0.0015 0.05459,0.0025 0.08204,0.004c0.60802,0.0282 1.21505,0.06903 1.82324,0.09473c0.62605,0.03025 1.25221,0.0334 1.87793,-0.003c0.4496,-0.024 0.89461,-0.09168 1.34082,-0.14746c1.35207,-0.16901 2.22896,-0.71118 2.66504,-1.36133c0.82629,-0.21023 0.92613,-0.9927 0.29883,-1.34082c-0.19813,-1.05434 -1.41191,-1.94893 -3.51562,-1.68262c-0.35476,0.0449 -0.709,0.10157 -1.06641,0.12207c-0.47127,0.03135 -0.94243,0.0167 -1.41406,-0.003c-0.59462,-0.02495 -1.18874,-0.06445 -1.78321,-0.0918c-0.67636,-0.0344 -1.35103,-0.08743 -2.02441,-0.16015c-0.79851,-0.08308 -1.60214,-0.18867 -2.40625,-0.13867zM148.93526,234.57172c0.0067,-0.00024 0.01385,-0.00034 0.0205,0c0.41012,0.02101 0.74888,1.11905 1.12207,2.16015c-0.00845,0.02286 -0.01695,0.04551 -0.0254,0.06836c-0.05634,0.14903 -0.10866,0.29911 -0.16211,0.44922c-0.11503,-0.09237 -0.22992,-0.18444 -0.34472,-0.27734c-0.24649,-0.1978 -0.48601,-0.40363 -0.72754,-0.60742c-0.17198,-0.14246 -0.34874,-0.27961 -0.54004,-0.39551c-0.03385,-0.02051 -0.06774,-0.03902 -0.10059,-0.05566c-0.00175,-0.04007 0.0033,-0.06082 0.0078,-0.12305c0.00869,-0.07455 0.03114,-0.14576 0.05664,-0.21582c0.25878,-0.71013 0.4853,-0.99573 0.69336,-1.00293zM321.36784,234.58147c0.03372,0.045 0.06854,0.09199 0.10254,0.1377c-0.0064,0.00535 -0.01445,0.00635 -0.0205,0.00585c-0.03124,-0.00565 -0.05843,-0.08308 -0.08203,-0.14356zM280.30953,260.15179c-0.03848,-0.0015 -0.07633,-0.001 -0.11328,0.001c-0.2586,0.0145 -0.478,0.12044 -0.62989,0.29101c-0.38381,-0.00895 -0.76747,-0.0154 -1.15137,-0.0205c-0.51091,0.00162 -0.91476,0.10999 -1.25586,0.38086c-0.02281,-0.01753 -0.04551,-0.03523 -0.06836,-0.05273c-0.07451,-0.05712 -0.14957,-0.11349 -0.22461,-0.16993c-0.03156,-0.02375 -0.08575,-0.09691 -0.11035,-0.10351c-0.0005,-0.00004 -0.0025,-0.00002 -0.003,0h-0.001h-0.001v0.001h-0.001h-0.001l-0.001,0.001v0.001l-0.001,0.001l-0.001,0.001c-0.001,0.00195 -0.0016,0.0048 -0.002,0.0078c-0.0073,0.05757 0.07819,0.0859 0.11719,0.1289c0.09117,0.10056 0.1581,0.18836 0.2041,0.26465c-0.14129,0.12925 -0.27214,0.28903 -0.3955,0.48437c-0.87975,0.05994 -2.58152,-0.34939 -1.53418,0.63184c0.0815,0.07635 0.15948,0.15567 0.24414,0.22851c0.05227,0.04495 0.11095,0.08253 0.16602,0.12403c0.07015,0.05286 0.14026,0.10572 0.20996,0.15918c0.26463,0.20297 0.52705,0.40893 0.79004,0.61426c0.02937,0.10402 0.06036,0.20478 0.08692,0.2998c0.27992,0.79577 0.77812,1.47967 1.27734,2.14942c0.3968,0.53392 0.81117,1.05572 1.2754,1.53321c0.12844,0.1321 0.26156,0.25914 0.39258,0.38867c0.80693,0.7683 1.71846,1.4111 2.625,2.05371c0.64081,0.44928 1.27479,0.90681 1.89453,1.38477c0.34852,0.29187 0.70368,0.57604 1.07813,0.83398c0.27868,0.15052 0.53039,0.33468 0.77539,0.5332c0.04032,0.03314 0.08047,0.06663 0.12012,0.10058c-0.06437,0.07562 -0.13009,0.15056 -0.19629,0.22461c-0.09483,0.10577 -0.20207,0.19982 -0.30567,0.29688c-1.55678,1.45852 -1.02379,2.99604 0.19727,3.11621c0.45125,0.52518 1.40314,0.41377 1.98925,-0.76562c0.03483,-0.07007 0.06937,-0.14066 0.10157,-0.21191c0.121,-0.11426 0.23976,-0.23056 0.3496,-0.35547c0.18809,-0.2111 0.3716,-0.42651 0.54688,-0.64844c0.02371,-0.05657 0.11869,-0.12975 0.14454,-0.15625c0.18636,-0.19131 0.35627,-0.39611 0.4834,-0.63281c0.06487,-0.17304 0.15199,-0.33868 0.19434,-0.51856c0.02325,-0.09879 0.03735,-0.19665 0.04295,-0.29394c0.35526,-0.19089 0.5317,-0.54874 0.46973,-0.93262c1.12759,-0.20691 1.23112,-1.66129 -0.40039,-2.23437c-0.18257,-0.06413 -0.36234,-0.13206 -0.5293,-0.23047c-0.06663,-0.04614 -0.13191,-0.09353 -0.19629,-0.14258c-0.05139,-0.49599 -0.10681,-0.95006 -0.31738,-0.94141c-0.09416,0.00387 -0.21889,0.09993 -0.38867,0.32617c-0.15776,-0.15168 -0.31229,-0.30711 -0.46582,-0.46192c-0.82047,-0.85061 -1.58139,-1.756 -2.34961,-2.65332c-0.31932,-0.38506 -0.64205,-0.76697 -0.96777,-1.14649c0.24818,0.04507 0.49657,0.08994 0.74511,0.13379c0.63752,0.10762 1.27972,0.2077 1.92676,0.23145c0.44952,0.00785 0.89817,0.00085 1.34765,-0.0078c0.37271,-0.00915 0.74802,-0.01312 1.11816,-0.06152c1.22191,-0.15966 0.91174,-0.56536 0.28613,-1.04199c0.46676,-0.5195 0.04789,-1.3136 -1.07812,-1.14942c-0.06865,0.01015 -0.03836,0.00425 -0.09375,0.01365c-0.08672,0.00775 -0.17361,0.01034 -0.26074,0.01075c-0.30842,-0.36545 -0.27275,-0.69623 0.63184,-0.91602h0.001c0.00525,-0.001 0.0185,-0.003 0.0215,-0.004v-0.001h-0.001c-0.06048,-0.0025 -0.12116,0.00725 -0.18164,0.00975c-0.17303,0.00715 -0.34544,0.01065 -0.51855,0.01465c-0.40388,0.0058 -0.80804,0.0168 -1.21192,0.0078c-0.4914,-0.02665 -0.97927,-0.10457 -1.46386,-0.1875c-0.85104,-0.15285 -1.69927,-0.31405 -2.55567,-0.43457c-0.66119,-0.07788 -1.32525,-0.12432 -1.99023,-0.15722c-0.31225,-0.23012 -0.61734,-0.33838 -0.88672,-0.35059zM178.68437,260.72039c-0.6127,-0.0241 -1.10198,0.111 -1.45312,0.33789c-0.27564,-0.08116 -0.53347,-0.12276 -0.7705,-0.13086c-1.94463,-0.0666 -2.49974,2.11016 -0.09571,3.12695c0.77701,0.32864 1.53877,0.68782 2.29688,1.05762c1.0536,0.53357 2.09169,1.09925 3.1123,1.69336c0.67032,0.40055 1.31063,0.84683 1.94336,1.30371c0.38805,0.28659 0.7863,0.56574 1.12402,0.91211c0.29316,0.33731 0.552,0.70092 0.78125,1.08398c0.23463,0.42434 0.44784,0.86021 0.6416,1.30469c0.06214,0.16689 0.1402,0.33043 0.18946,0.50195h-0.001h-0.001h-0.001h-0.001c-0.0015,0.00042 -0.07945,0.18313 -0.0957,0.22168c-0.08613,0.19062 -0.19483,0.37187 -0.30176,0.55176c-0.07375,0.11394 -0.14309,0.23087 -0.22558,0.33887c-0.04063,0.05317 -0.02253,0.04052 -0.05078,0.05957c0.00595,-0.0161 0.0165,-0.0303 0.0215,-0.03615c-0.00785,0.00829 -0.03503,0.03456 -0.10059,0.09082c-1.81616,1.55885 -1.00737,3.33222 0.53809,3.1211c0.37152,0.06222 0.8481,-0.04909 1.36523,-0.42383c0.01175,-0.0085 0.0234,-0.0169 0.03515,-0.0254c0.14095,-0.09686 0.28345,-0.19211 0.41503,-0.30176c0.2153,-0.17682 0.41212,-0.37293 0.55859,-0.6123c0.15688,-0.28078 0.27955,-0.57835 0.31446,-0.90137c0.0015,-0.01295 0.0035,-0.0261 0.005,-0.03905c0.11312,-0.20116 0.21955,-0.40563 0.30957,-0.61816c0.24909,-0.60062 0.42427,-1.19731 0.31836,-1.85645c-0.01515,-0.0741 -0.02815,-0.14879 -0.04395,-0.22265c0.0869,-0.20159 0.18332,-0.39847 0.2959,-0.58789c0.10653,-0.17755 0.0444,-0.07913 0.12793,-0.20605c0.00495,-0.00745 0.01895,-0.019 0.02345,-0.02635v-0.001h0.001v-0.001v-0.001v-0.001h-0.001v-0.001h-0.001v-0.001h-0.001h-0.001h-0.001h-0.001h-0.001c-0.001,-0.0005 -0.00275,-0.00095 -0.003,-0.001c-0.0005,-0.00001 -0.0016,-0.00002 -0.002,0c0.0033,-0.0015 0.00675,-0.0035 0.00975,-0.005c1.59005,-0.79484 1.24929,-2.22059 0.005,-2.22558c-0.28715,-0.00116 -0.62236,0.07372 -0.99317,0.24902c-0.18643,0.08814 -0.35224,0.20949 -0.5,0.35058c-0.05695,-0.10577 -0.11521,-0.21114 -0.1748,-0.31543c-0.36461,-0.59688 -0.77027,-1.1686 -1.25,-1.67968c-0.08624,-0.08449 -0.17025,-0.17085 -0.25879,-0.25293c-0.38603,-0.3579 -0.81945,-0.66309 -1.24024,-0.97754c-0.40678,-0.29344 -0.81686,-0.5826 -1.23437,-0.86035c0.43222,0.0104 0.86499,-0.0045 1.29688,-0.0371c0.48597,-0.05291 0.97293,-0.09981 1.45703,-0.16797c0.31701,-0.0447 0.62855,-0.11894 0.93945,-0.19433c0.28203,-0.06839 0.5307,-0.15672 0.74805,-0.26074c0.19294,-0.01819 0.38406,-0.05394 0.57128,-0.10645c1.02931,-0.28862 1.12087,-1.14328 0.59864,-1.47168c-0.03911,-0.86485 -1.00536,-1.59886 -2.65527,-1.19726c-0.21739,0.05291 -0.4343,0.10778 -0.65625,0.13867c-0.41271,0.06581 -0.83254,0.09138 -1.24707,0.14453c-0.55492,0.0463 -1.11026,0.04605 -1.66406,-0.0205c-0.83173,-0.08468 -1.65834,-0.20617 -2.47656,-0.37988c-0.66455,-0.13298 -1.32935,-0.26651 -1.99707,-0.38281c-0.19048,-0.03319 -0.37151,-0.05184 -0.54297,-0.05859zM280.81511,263.69182c0.13948,0.00605 0.27852,0.0113 0.41797,0.0166c0.35591,0.39269 0.70793,0.78847 1.05664,1.1875c-0.47762,-0.41868 -0.98081,-0.805 -1.47461,-1.2041zM189.90986,270.45448c-0.0015,0.0005 -0.0063,0.00175 -0.0088,0.002h-0.001h-0.001v-0.001h0.001c0.0117,-0.0069 0.0239,-0.01275 0.03615,-0.01855c-0.00865,0.0057 -0.0173,0.01405 -0.02635,0.01755zM186.46267,271.93793c0.0245,0.09125 0.025,0.05818 0.0205,0.1084h-0.001h-0.001h-0.001v-0.001h-0.001h-0.001c-0.02195,-0.01 -0.0141,-0.07138 -0.0156,-0.10743zM228.59975,272.68871h-0.001l-0.001,0.001l-0.001,0.001l-0.001,0.001l-0.001,0.001h-0.001l-0.001,0.001l-0.001,0.001l-0.001,0.001v0.001c-0.0015,0.0025 -0.00253,0.0058 -0.003,0.0078c-0.00374,0.0264 0.05404,0.05208 0.07519,0.07813c0.35282,0.43452 0.51072,0.75179 0.52442,0.98145c-0.08318,-0.02012 -0.16604,-0.04058 -0.24902,-0.06152c-0.53026,-0.1338 -1.0105,-0.1839 -1.4375,-0.16699c-0.31542,0.01248 -0.60134,0.06182 -0.85645,0.14062c-0.03379,0.00535 -0.06665,0.0111 -0.0996,0.0176c-0.15778,-0.0188 -0.31053,-0.02784 -0.45703,-0.0283c-2.75539,-0.00856 -3.45906,3.09901 -0.0117,4.41895c0.81414,0.31172 1.59112,0.70511 2.36328,1.10742c0.06391,0.03284 0.12772,0.06636 0.19141,0.09961c0.08956,0.08203 0.17857,0.16395 0.26758,0.2461c0.91246,0.88646 1.78982,1.80757 2.69238,2.7041c0.58929,0.57155 1.18981,1.13099 1.78321,1.69825c0.44473,0.4192 0.91368,0.81024 1.40821,1.16797c-0.02986,0.15207 -0.07542,0.49453 -0.12207,0.53417h-0.001l-0.001,0.001h-0.001h-0.001v-0.001v-0.001c0,-0.0084 0.0107,-0.03565 0.0127,-0.04785c-0.00755,0.01235 -0.01495,0.02475 -0.02245,0.0371c-1.69817,2.78031 0.27487,4.69675 2.17676,3.86621c0.72791,-0.11496 1.54693,-0.59748 2.30176,-1.56836c0.03845,-0.04945 0.07678,-0.09899 0.11523,-0.14844c0.2913,-0.40598 0.54931,-0.8336 0.72754,-1.30274c0.12808,-0.34692 0.24145,-0.69873 0.36621,-1.04687c0.18554,-0.51804 0.34948,-1.04547 0.46875,-1.58301c0.12275,-0.67592 0.17014,-1.35838 0.09766,-2.04394c-0.05455,-0.53565 -0.12993,-1.07378 -0.33984,-1.57422c-0.29086,-0.69342 -0.56454,-0.97399 -0.82422,-0.98339c-0.45421,-0.01645 -0.86628,0.79538 -1.25782,1.66992c-0.01025,-0.0111 -0.02185,-0.0237 -0.0342,-0.0371c-0.28066,-0.29993 -0.56528,-0.59601 -0.85059,-0.8916c0.05795,-0.02729 0.11556,-0.05586 0.17285,-0.08496c0.2921,-0.19348 0.62571,-0.36424 0.875,-0.61719c0.09756,-0.099 0.18812,-0.20468 0.27832,-0.31055c2.99241,-0.99637 2.29089,-4.49624 -1.59864,-4.16601c-0.39977,0.03395 -0.79933,0.0366 -1.20019,0.01365c-0.73085,-0.0261 -1.46203,-0.05878 -2.18848,-0.14746c-0.95308,-0.12263 -1.897,-0.30183 -2.83887,-0.49121c-0.08379,-0.01769 -0.16715,-0.03509 -0.25098,-0.05274c-0.2587,-0.14971 -0.51545,-0.304 -0.76953,-0.46191c-0.56349,-0.34219 -0.4393,-0.26024 -0.95215,-0.59765c-0.19079,-0.12552 -0.27561,-0.17986 -0.44336,-0.30664c-0.02374,-0.01796 -0.05199,-0.07217 -0.07324,-0.07617h-0.001h-0.001h-0.001h-0.001zM235.1444,285.35767c0.04701,0.03291 0.09354,0.0684 0.11523,0.09375v0.001h0.001v0.001h-0.001v0.001l-0.001,0.001v0.001h-0.001l-0.001,0.001h-0.001v0.001h-0.001h-0.001h-0.001h-0.001c-0.0329,-0.0247 -0.06698,-0.05003 -0.09278,-0.08203c-0.0051,-0.0063 -0.00965,-0.01255 -0.01465,-0.01855z" fill="none"/></clipPath></defs><g transform="translate(-15,-30)"><g data-paper-data="{&quot;isPaintingLayer&quot;:true}" fill-rule="nonzero" stroke="none" stroke-width="1" stroke-linecap="butt" stroke-linejoin="miter" stroke-miterlimit="10" stroke-dasharray="" stroke-dashoffset="0" style="mix-blend-mode: normal"><path d="M15,330v-300h450v300z" data-paper-data="{&quot;index&quot;:null}" fill="#003399"/><g data-paper-data="{&quot;index&quot;:null}"><path d="M356.06284,196.95936l-28.85329,-20.96314h35.66462l-28.85329,20.96314l11.02098,-33.91907z" fill="#ff0000"/><g fill="none" font-family="sans-serif" font-weight="normal" font-size="12" text-anchor="start"/></g><path d="M345.73745,196.95936l-28.85329,-20.96314h35.66462l-28.85329,20.96314l11.02098,-33.91907z" data-paper-data="{&quot;index&quot;:null}" fill="#00cc00"/><g data-paper-data="{&quot;index&quot;:null}"><path d="M343.03093,247.09988l-28.85329,-20.96314h35.66462l-28.85329,20.96314l11.02098,-33.91907z" fill="#ff0000"/><g fill="none" font-family="sans-serif" font-weight="normal" font-size="12" text-anchor="start"/></g><path d="M332.70554,247.09988l-28.85329,-20.96314h35.66462l-28.85329,20.96314l11.02098,-33.91907z" data-paper-data="{&quot;index&quot;:null}" fill="#00cc00"/><g data-paper-data="{&quot;index&quot;:null}"><path d="M169.87285,247.09988l-28.85329,-20.96314h35.66462l-28.85329,20.96314l11.02097,-33.91907z" fill="#ff0000"/><g fill="none" font-family="sans-serif" font-weight="normal" font-size="12" text-anchor="start"/></g><path d="M159.54746,247.09988l-28.85328,-20.96314h35.66462l-28.85328,20.96314l11.02097,-33.91907z" data-paper-data="{&quot;index&quot;:null}" fill="#00cc00"/><g data-paper-data="{&quot;index&quot;:null}"><path d="M156.14775,196.95936l-28.85329,-20.96314h35.66462l-28.85329,20.96314l11.02098,-33.91907z" fill="#ff0000"/><g fill="none" font-family="sans-serif" font-weight="normal" font-size="12" text-anchor="start"/></g><path d="M145.82236,196.95936l-28.85329,-20.96314h35.66462l-28.85328,20.96314l11.02097,-33.91907z" data-paper-data="{&quot;index&quot;:null}" fill="#00cc00"/><g data-paper-data="{&quot;index&quot;:null}"><path d="M169.59558,146.88599l-28.85329,-20.96314h35.66462l-28.85329,20.96314l11.02097,-33.91907z" fill="#ff0000"/><g fill="none" font-family="sans-serif" font-weight="normal" font-size="12" text-anchor="start"/></g><path d="M159.27019,146.88599l-28.85328,-20.96314h35.66462l-28.85329,20.96314l11.02098,-33.91907z" data-paper-data="{&quot;index&quot;:null}" fill="#00cc00"/><g data-paper-data="{&quot;index&quot;:null}"><path d="M343.16957,146.88599l-28.85329,-20.96314h35.66462l-28.85329,20.96314l11.02098,-33.91907z" fill="#ff0000"/><g fill="none" font-family="sans-serif" font-weight="normal" font-size="12" text-anchor="start"/></g><path d="M332.84417,146.88599l-28.85328,-20.96314h35.66462l-28.85328,20.96314l11.02097,-33.91907z" data-paper-data="{&quot;index&quot;:null}" fill="#00cc00"/><g data-paper-data="{&quot;index&quot;:null}"><path d="M256.38257,96.97654l-28.85329,-20.96314h35.66462l-28.85329,20.96314l11.02098,-33.91907z" fill="#ff0000"/><g fill="none" font-family="sans-serif" font-weight="normal" font-size="12" text-anchor="start"/></g><path d="M246.05718,96.97654l-28.85329,-20.96314h35.66462l-28.85329,20.96314l11.02098,-33.91907z" data-paper-data="{&quot;index&quot;:null}" fill="#00cc00"/><g data-paper-data="{&quot;index&quot;:null}"><g><path d="M184.92024,76.65034l11.02097,33.91907l-28.85328,-20.96314h35.66462l-28.85328,20.96314z" fill="#ff0000"/><g fill="none" font-family="sans-serif" font-weight="normal" font-size="12" text-anchor="start"/></g><path d="M195.24564,76.65034l11.02098,33.91907l-28.85328,-20.96314h35.66462l-28.85329,20.96314z" fill="#00cc00"/></g><g data-paper-data="{&quot;index&quot;:null}"><g><path d="M306.90594,110.56941l-28.85329,-20.96314h35.66462l-28.85329,20.96314l11.02098,-33.91907z" fill="#ff0000"/><g fill="none" font-family="sans-serif" font-weight="normal" font-size="12" text-anchor="start"/></g><path d="M296.58055,110.56941l-28.85329,-20.96314h35.66462l-28.85328,20.96314l11.02097,-33.91907z" fill="#00cc00"/></g><g data-paper-data="{&quot;index&quot;:null}"><path d="M306.90594,283.17389l-28.85328,-20.96314h35.66462l-28.85329,20.96314l11.02098,-33.91907z" fill="#ff0000"/><g fill="none" font-family="sans-serif" font-weight="normal" font-size="12" text-anchor="start"/></g><path d="M296.58055,283.17389l-28.85329,-20.96314h35.66462l-28.85328,20.96314l11.02097,-33.91907z" data-paper-data="{&quot;index&quot;:null}" fill="#00cc00"/><g data-paper-data="{&quot;index&quot;:null}"><path d="M235.1989,263.04047l11.02097,33.91907l-28.85328,-20.96314h35.66462l-28.85329,20.96314z" fill="#ff0000"/><g fill="none" font-family="sans-serif" font-weight="normal" font-size="12" text-anchor="start"/></g><g clip-path="url(#clip-1)" data-paper-data="{&quot;index&quot;:null}"><path d="M245.1989,263.04047l11.02097,33.91907l-28.85329,-20.96314h35.66462l-28.85328,20.96314z" fill="#00cc00"/><g fill="none" font-family="sans-serif" font-weight="normal" font-size="12" text-anchor="start"/></g><g data-paper-data="{&quot;index&quot;:null}"><path d="M184.76284,249.69931l11.02097,33.91907l-28.85328,-20.96314h35.66462l-28.85329,20.96314z" fill="#ff0000"/><g fill="none" font-family="sans-serif" font-weight="normal" font-size="12" text-anchor="start"/></g><path d="M195.08823,249.69931l11.02098,33.91907l-28.85328,-20.96314h35.66462l-28.85328,20.96314z" data-paper-data="{&quot;index&quot;:null}" fill="#00cc00"/><g data-paper-data="{&quot;index&quot;:null}" fill="#ffcc00"><path d="M230.98894,275.99652h8.41992h1.58008h8.41992h3.62207l-11.02051,8.00683l1.91016,5.87793l-3.72168,2.7041l-3.72168,-2.7041l1.91016,-5.87793l-11.02051,-8.00683z"/><path d="M230.98894,75.99652h8.41992h1.58008h8.41992h3.62207l-11.02051,8.00684l1.91016,5.87793l-3.72168,2.7041l-3.72168,-2.7041l1.91016,-5.87793l-11.02051,-8.00684z"/><path d="M180.98894,89.39398h8.41992h1.58008h8.41992h3.62207l-11.02051,8.00683l1.91016,5.87793l-3.72168,2.70411l-3.72168,-2.70411l1.91015,-5.87793l-11.0205,-8.00683z"/><path d="M144.3864,125.99652h8.41992h1.58008h8.41992h3.62207l-11.02051,8.00683l1.91016,5.87793l-3.72168,2.7041l-3.72168,-2.7041l1.91016,-5.87793l-11.02051,-8.00683z"/><path d="M130.98894,175.99652h8.41992h1.58008h8.41992h3.62207l-11.0205,8.00683l1.91016,5.87793l-3.72168,2.7041l-3.72168,-2.7041l1.91016,-5.87793l-11.0205,-8.00683z"/><path d="M144.3864,225.99652h8.41992h1.58008h8.41992h3.62207l-11.02051,8.00683l1.91016,5.87793l-3.72168,2.7041l-3.72168,-2.7041l1.91016,-5.87793l-11.02051,-8.00683z"/><path d="M180.98894,262.59906h8.41992h1.58008h8.41992h3.62207l-11.02051,8.00684l1.91016,5.87793l-3.72168,2.7041l-3.72168,-2.7041l1.91015,-5.87793l-11.0205,-8.00684z"/><path d="M280.98894,89.39398h8.41992h1.58008h8.41992h3.62207l-11.02051,8.00683l1.91016,5.87793l-3.72168,2.70411l-3.72168,-2.70411l1.91016,-5.87793l-11.02051,-8.00683z"/><path d="M317.59148,125.99652h8.41992h1.58008h8.41992h3.62207l-11.02051,8.00683l1.91016,5.87793l-3.72168,2.7041l-3.72168,-2.7041l1.91015,-5.87793l-11.0205,-8.00683z"/><path d="M330.98894,175.99652h8.41992h1.58008h8.41992h3.62207l-11.02051,8.00683l1.91016,5.87793l-3.72168,2.7041l-3.72168,-2.7041l1.91015,-5.87793l-11.0205,-8.00683z"/><path d="M317.59148,225.99652h8.41992h1.58008h8.41992h3.62207l-11.02051,8.00683l1.91016,5.87793l-3.72168,2.7041l-3.72168,-2.7041l1.91015,-5.87793l-11.0205,-8.00683z"/><path d="M280.98894,262.59906h8.41992h1.58008h8.41992h3.62207l-11.02051,8.00684l1.91016,5.87793l-3.72168,2.7041l-3.72168,-2.7041l1.91016,-5.87793l-11.02051,-8.00684z"/></g></g></g></svg>